<?xml version="1.0" encoding="UTF-8"?>
<svg width="32px" height="32px" viewBox="0 0 32 32" version="1.1" xmlns="http://www.w3.org/2000/svg" xmlns:xlink="http://www.w3.org/1999/xlink">
    <defs>
        <polygon id="path-1" points="0.0004 -0.0001 30.357 -0.0001 30.357 13.6607 0.0004 13.6607"></polygon>
    </defs>
    <g id="key" stroke="none" stroke-width="1" fill="none" fill-rule="evenodd">
        <g id="Page-1" transform="translate(1.000000, 9.000000)">
            <mask id="mask-2" fill="white">
                <use xlink:href="#path-1"></use>
            </mask>
            <g id="Clip-2"></g>
            <path d="M6.8304,4.5537 C5.5734,4.5537 4.5534,5.5727 4.5534,6.8307 C4.5534,8.0877 5.5734,9.1077 6.8304,9.1077 C8.0874,9.1077 9.1074,8.0877 9.1074,6.8307 C9.1074,5.5727 8.0874,4.5537 6.8304,4.5537 M6.8304,-0.0003 C9.8054,-0.0003 12.3404,1.8977 13.2664,4.5537 L30.3574,4.5537 L30.3574,9.1077 L27.3214,9.1077 L27.3214,13.6607 L24.2864,13.6607 L24.2864,9.1077 L21.2504,9.1077 L21.2504,13.6607 L18.1114,13.6607 L18.1114,9.1077 L13.2664,9.1077 C12.3404,11.7637 9.8054,13.6607 6.8304,13.6607 C3.0354,13.6607 0.0004,10.6247 0.0004,6.8307 C0.0004,3.0357 3.0354,-0.0003 6.8304,-0.0003" id="Fill-1" fill="#FF9900" mask="url(#mask-2)"></path>
        </g>
    </g>
</svg>