<svg width="32" height="32" viewBox="0 0 32 32" fill="none" xmlns="http://www.w3.org/2000/svg">
<g clip-path="url(#clip0_7928_11629)">
<path d="M12.0001 3.00001C16.9601 3.00001 21.0001 7.04003 21.0001 12.0001C21.0001 16.9601 16.9601 21.0001 12.0001 21.0001C7.04003 21.0001 3.00001 16.9601 3.00001 12.0001C3.00001 7.04003 7.04003 3.00001 12.0001 3.00001ZM12.0001 1C5.92002 1 1 5.92002 1 12.0001C1 18.0801 5.92002 23.0001 12.0001 23.0001C18.0801 23.0001 23.0001 18.0801 23.0001 12.0001C23.0001 5.92002 18.0801 1 12.0001 1Z" fill="#3387C5"/>
<path d="M19 19L30.0001 30" stroke="#3387C5" stroke-width="2" stroke-miterlimit="10"/>
<path d="M18.0001 11H6V13H18.0001V11Z" fill="#3387C5"/>
</g>
<defs>
<clipPath id="clip0_7928_11629">
<rect width="32" height="32" fill="white"/>
</clipPath>
</defs>
</svg>
