<svg width="24" height="24" viewBox="0 0 24 24" fill="none" xmlns="http://www.w3.org/2000/svg">
<g clip-path="url(#clip0_7928_11656)">
<path d="M9.64291 2.57142C13.5401 2.57142 16.7144 5.74569 16.7144 9.64282C16.7144 13.5399 13.5401 16.7142 9.64291 16.7142C5.74574 16.7142 2.57144 13.5399 2.57144 9.64282C2.57144 5.74569 5.74574 2.57142 9.64291 2.57142ZM9.64291 1C4.86574 1 1 4.8657 1 9.64282C1 14.4199 4.86574 18.2856 9.64291 18.2856C14.4201 18.2856 18.2858 14.4199 18.2858 9.64282C18.2858 4.8657 14.4201 1 9.64291 1Z" fill="#3387C5"/>
<path d="M15.1426 15.1426L22.9998 22.9997" stroke="#3387C5" stroke-width="1.5" stroke-miterlimit="10"/>
</g>
<defs>
<clipPath id="clip0_7928_11656">
<rect width="24" height="24" fill="white"/>
</clipPath>
</defs>
</svg>
