<svg width="16" height="16" viewBox="0 0 16 16" fill="none" xmlns="http://www.w3.org/2000/svg">
<g clip-path="url(#clip0_7928_11643)">
<g clip-path="url(#clip1_7928_11643)">
<path d="M6.28559 1.14283C9.11982 1.14283 11.4283 3.45136 11.4283 6.28559C11.4283 9.11982 9.11982 11.4283 6.28559 11.4283C3.45136 11.4283 1.14283 9.11982 1.14283 6.28559C1.14283 3.45136 3.45136 1.14283 6.28559 1.14283ZM6.28559 0C2.81137 0 0 2.81137 0 6.28559C0 9.7598 2.81137 12.5712 6.28559 12.5712C9.7598 12.5712 12.5712 9.7598 12.5712 6.28559C12.5712 2.81137 9.7598 0 6.28559 0Z" fill="#3387C5"/>
<path d="M10.2861 10.2861L16.0003 16.0003" stroke="#3387C5" stroke-miterlimit="10"/>
<path d="M9.71345 5.71484H2.85645V6.85768H9.71345V5.71484Z" fill="#3387C5"/>
</g>
</g>
<defs>
<clipPath id="clip0_7928_11643">
<rect width="16" height="16" fill="white"/>
</clipPath>
<clipPath id="clip1_7928_11643">
<rect width="16" height="16" fill="white"/>
</clipPath>
</defs>
</svg>
