<svg width="32" height="32" viewBox="0 0 32 32" fill="none" xmlns="http://www.w3.org/2000/svg">
<g clip-path="url(#clip0_7987_4550)">
<g clip-path="url(#clip1_7987_4550)">
<path d="M17.8667 26.22C16.8027 26.0053 16 25.0627 16 23.9333V22.5333H6.66667V6.2C6.66667 4.912 7.712 3.86667 9 3.86667H21.1613C20.8627 4.324 20.6667 4.828 20.6667 5.35067V15.0667H22.5333V6.33067C22.5333 5.108 23.4107 3.99733 24.624 3.876C26.024 3.736 26.2667 3.876 26.2667 3.876V2H8.53333C6.816 2 4.8 3.60533 4.8 5.35067V22.5333H2V24.7827C2 26.5373 3.08267 28.1333 4.8 28.1333H17.8667V26.22ZM5.32267 26.2667C4.52 26.2667 3.86667 25.716 3.86667 25.0347V24.4H14.1333C14.1333 25.1187 14.4133 25.772 14.8613 26.2667H5.32267Z" fill="#3387C5"/>
<path d="M27.4707 18.8003L24.8667 21.6376L22.2627 18.8003H27.4614M30.0001 16.9336H19.7334V18.8003L24.8667 24.4003L30.0001 18.8003V16.9336Z" fill="#3387C5"/>
<path d="M24.8667 22.5332L30.0001 28.1332V29.9999H19.7334V28.1332L24.8667 22.5332Z" fill="#3387C5"/>
</g>
</g>
<defs>
<clipPath id="clip0_7987_4550">
<rect width="32" height="32" fill="white"/>
</clipPath>
<clipPath id="clip1_7987_4550">
<rect width="28" height="28" fill="white" transform="translate(2 2)"/>
</clipPath>
</defs>
</svg>
