<svg width="16" height="16" viewBox="0 0 16 16" fill="none" xmlns="http://www.w3.org/2000/svg">
<g clip-path="url(#clip0_7987_4560)">
<g clip-path="url(#clip1_7987_4560)">
<path d="M8.93333 13.11C8.40133 13.0027 8 12.5313 8 11.9667V11.2667H3.33333V3.1C3.33333 2.456 3.856 1.93333 4.5 1.93333H10.5807C10.4313 2.162 10.3333 2.414 10.3333 2.67533V7.53333H11.2667V3.16533C11.2667 2.554 11.7053 1.99867 12.312 1.938C13.012 1.868 13.1333 1.938 13.1333 1.938V1H4.26667C3.408 1 2.4 1.80267 2.4 2.67533V11.2667H1V12.3913C1 13.2687 1.54133 14.0667 2.4 14.0667H8.93333V13.11ZM2.66133 13.1333C2.26 13.1333 1.93333 12.858 1.93333 12.5173V12.2H7.06667C7.06667 12.5593 7.20667 12.886 7.43067 13.1333H2.66133Z" fill="#3387C5"/>
<path d="M13.7349 9.40013L12.4329 10.8188L11.1309 9.40013H13.7302M14.9995 8.4668H9.86621V9.40013L12.4329 12.2001L14.9995 9.40013V8.4668Z" fill="#3387C5"/>
<path d="M12.4329 11.2666L14.9995 14.0666V14.9999H9.86621V14.0666L12.4329 11.2666Z" fill="#3387C5"/>
</g>
</g>
<defs>
<clipPath id="clip0_7987_4560">
<rect width="16" height="16" fill="white"/>
</clipPath>
<clipPath id="clip1_7987_4560">
<rect width="14" height="14" fill="white" transform="translate(1 1)"/>
</clipPath>
</defs>
</svg>
