<svg width="32" height="32" viewBox="0 0 32 32" fill="none" xmlns="http://www.w3.org/2000/svg">
<g clip-path="url(#clip0_8043_5081)">
<path d="M10 2C8.16 2 6 3.72 6 5.59V24H3V26.41C3 28.28 4.16 30 6 30H21C22.84 30 25 27.87 25 26V6.64C25 5.33 25.94 4.14 27.24 4.01C28.74 3.86 29 4.01 29 4.01V2H10ZM5 26.68V26H16C16 26.77 16.3 27.47 16.78 28H6.56C5.7 28 5 27.41 5 26.68ZM23 11V25.5C23 26.88 21.88 28 20.5 28C19.12 28 18 26.88 18 25.5V24H8V6.5C8 5.12 9.12 4 10.5 4H23.53C23.21 4.49 23 5.03 23 5.59V11Z" fill="#3387C5"/>
</g>
<defs>
<clipPath id="clip0_8043_5081">
<rect width="32" height="32" fill="white"/>
</clipPath>
</defs>
</svg>
