<svg width="24" height="24" viewBox="0 0 24 24" fill="none" xmlns="http://www.w3.org/2000/svg">
<g clip-path="url(#clip0_8043_5087)">
<path d="M7.38462 1C5.96923 1 4.30769 2.35143 4.30769 3.82071V18.2857H2V20.1793C2 21.6486 2.89231 23 4.30769 23H15.8462C17.2615 23 18.9231 21.3264 18.9231 19.8571V4.64571C18.9231 3.61643 19.6462 2.68143 20.6462 2.57929C21.8 2.46143 22 2.57929 22 2.57929V1H7.38462ZM3.53846 20.3914V19.8571H12C12 20.4621 12.2308 21.0121 12.6 21.4286H4.73846C4.07692 21.4286 3.53846 20.965 3.53846 20.3914ZM17.3846 8.07143V19.4643C17.3846 20.5486 16.5231 21.4286 15.4615 21.4286C14.4 21.4286 13.5385 20.5486 13.5385 19.4643V18.2857H5.84615V4.53571C5.84615 3.45143 6.70769 2.57143 7.76923 2.57143H17.7923C17.5462 2.95643 17.3846 3.38071 17.3846 3.82071V8.07143Z" fill="#3387C5"/>
</g>
<defs>
<clipPath id="clip0_8043_5087">
<rect width="24" height="24" fill="white"/>
</clipPath>
</defs>
</svg>
