<svg width="16" height="16" viewBox="0 0 16 16" fill="none" xmlns="http://www.w3.org/2000/svg">
<g clip-path="url(#clip0_8043_5093)">
<path d="M5.5 1C4.58 1 3.5 1.86 3.5 2.795V12H2V13.205C2 14.14 2.58 15 3.5 15H11C11.92 15 13 13.935 13 13V3.32C13 2.665 13.47 2.07 14.12 2.005C14.87 1.93 15 2.005 15 2.005V1H5.5ZM3 13.34V13H8.5C8.5 13.385 8.65 13.735 8.89 14H3.78C3.35 14 3 13.705 3 13.34ZM12 5.5V12.75C12 13.44 11.44 14 10.75 14C10.06 14 9.5 13.44 9.5 12.75V12H4.5V3.25C4.5 2.56 5.06 2 5.75 2H12.265C12.105 2.245 12 2.515 12 2.795V5.5Z" fill="#3387C5"/>
</g>
<defs>
<clipPath id="clip0_8043_5093">
<rect width="16" height="16" fill="white"/>
</clipPath>
</defs>
</svg>
