<svg width="24" height="24" viewBox="0 0 24 24" fill="none" xmlns="http://www.w3.org/2000/svg">
<g clip-path="url(#clip0_7987_4555)">
<g clip-path="url(#clip1_7987_4555)">
<path d="M13.4667 20.03C12.6307 19.8613 12 19.1207 12 18.2333V17.1333H4.66667V4.3C4.66667 3.288 5.488 2.46667 6.5 2.46667H16.0553C15.8207 2.826 15.6667 3.222 15.6667 3.63267V11.2667H17.1333V4.40267C17.1333 3.442 17.8227 2.56933 18.776 2.474C19.876 2.364 20.0667 2.474 20.0667 2.474V1H6.13333C4.784 1 3.2 2.26133 3.2 3.63267V17.1333H1V18.9007C1 20.2793 1.85067 21.5333 3.2 21.5333H13.4667V20.03ZM3.61067 20.0667C2.98 20.0667 2.46667 19.634 2.46667 19.0987V18.6H10.5333C10.5333 19.1647 10.7533 19.678 11.1053 20.0667H3.61067Z" fill="#3387C5"/>
<path d="M21.0129 14.2001L18.9669 16.4294L16.9209 14.2001H21.0056M23.0003 12.7334H14.9336V14.2001L18.9669 18.6001L23.0003 14.2001V12.7334Z" fill="#3387C5"/>
<path d="M18.9669 17.1338L23.0003 21.5338V23.0005H14.9336V21.5338L18.9669 17.1338Z" fill="#3387C5"/>
</g>
</g>
<defs>
<clipPath id="clip0_7987_4555">
<rect width="24" height="24" fill="white"/>
</clipPath>
<clipPath id="clip1_7987_4555">
<rect width="22" height="22" fill="white" transform="translate(1 1)"/>
</clipPath>
</defs>
</svg>
