<svg width="14" height="10" viewBox="0 0 14 10" fill="none" xmlns="http://www.w3.org/2000/svg">
<path d="M9 1V9.04762H1V1H9ZM10 0H0V10H10V0Z" fill="#3387C5"/>
<path d="M9 1H1V2H9V1Z" fill="#3387C5"/>
<path d="M7 2H6V10H7V2Z" fill="#3387C5"/>
<path d="M4 2H3V10H4V2Z" fill="#3387C5"/>
<path d="M9 4H1V5H9V4Z" fill="#3387C5"/>
<path d="M9 6H1V7H9V6Z" fill="#3387C5"/>
<path d="M9 6L1 6L1 5L9 5L9 6ZM10 7L10 4L0 4L-1.31134e-07 7L10 7Z" fill="#ED8000"/>
<path d="M7 7L7 4L6 4L6 7L7 7Z" fill="#ED8000"/>
<path d="M3 4L3 7L4 7L4 4L3 4Z" fill="#ED8000"/>
<path d="M14 6L14 5L12 5L12 6L14 6Z" fill="#ED8000"/>
<path d="M12 7L10 5.5L12 4L12 7Z" fill="#ED8000"/>
</svg>
