<svg width="22" height="17" viewBox="0 0 22 17" fill="none" xmlns="http://www.w3.org/2000/svg">
<path d="M14.142 1.57143V14.9286H1.57133V1.57143H14.142ZM15.7133 0H0V16.5H15.7133V0Z" fill="#3387C5"/>
<path d="M14.1429 1.57031H1.57227V4.71317H14.1429V1.57031Z" fill="#3387C5"/>
<path d="M11.001 3.14062H9.42969V16.4978H11.001V3.14062Z" fill="#3387C5"/>
<path d="M6.2852 3.14062H4.71387V16.4978H6.2852V3.14062Z" fill="#3387C5"/>
<path d="M14.1429 7.07031H1.57227V8.64174H14.1429V7.07031Z" fill="#3387C5"/>
<path d="M14.1429 11H1.57227V12.5714H14.1429V11Z" fill="#3387C5"/>
<path d="M14.1425 10.9989L1.57186 10.9989L1.57186 8.64174L14.1425 8.64174L14.1425 10.9989ZM15.7139 12.5703L15.7139 7.07031L0.000522614 7.07031L0.000522373 12.5703L15.7139 12.5703Z" fill="#ED8000"/>
<path d="M11 12.5703L11 7.07031L9.42867 7.07031L9.42867 12.5703L11 12.5703Z" fill="#ED8000"/>
<path d="M4.71387 7.07031L4.71387 12.5703L6.2852 12.5703L6.2852 7.07031L4.71387 7.07031Z" fill="#ED8000"/>
<path d="M22 10.2121L22 8.64062L18.0717 8.64062L18.0717 10.2121L22 10.2121Z" fill="#ED8000"/>
<path d="M19.6436 12.5748L16.5009 9.43192L19.6436 6.28906L19.6436 12.5748Z" fill="#ED8000"/>
</svg>
